<svg width="16" height="16" viewBox="0 0 16 16" fill="none" xmlns="http://www.w3.org/2000/svg">
<path d="M14.2222 2.22217H9.11108V6.88883H16V3.99995C16 3.01817 15.204 2.22217 14.2222 2.22217Z" fill="#EEEEEE"/>
<path d="M9.11111 2.22217H6.88889V6.88883H0V9.11106H6.88889V13.7777H9.11111V9.11106H16V6.88883H9.11111V2.22217Z" fill="#E8112D"/>
<path d="M12.8512 4.25977C12.865 3.98288 12.8974 3.70688 12.9494 3.43311C12.6881 3.46555 12.4237 3.46555 12.1628 3.43311C12.2148 3.70644 12.2472 3.98288 12.261 4.25977C11.9841 4.24599 11.7081 4.21355 11.4343 4.16155C11.4668 4.42288 11.4668 4.68733 11.4343 4.94822C11.7077 4.89622 11.9841 4.86377 12.261 4.84999C12.2472 5.12688 12.2148 5.40288 12.1628 5.67666C12.4241 5.64422 12.6885 5.64422 12.9494 5.67666C12.8974 5.40333 12.865 5.12688 12.8512 4.84999C13.1281 4.86377 13.4041 4.89622 13.6779 4.94822C13.6454 4.68688 13.6454 4.42244 13.6779 4.16155C13.4041 4.21399 13.1281 4.24644 12.8512 4.25977Z" fill="#E8112D"/>
<path d="M6.88889 2.22217H1.77778C0.796 2.22217 0 3.01817 0 3.99995V6.88883H6.88889V2.22217Z" fill="#EEEEEE"/>
<path d="M3.73989 4.25977C3.75366 3.98288 3.78611 3.70688 3.83811 3.43311C3.57678 3.46555 3.31233 3.46555 3.05144 3.43311C3.10344 3.70644 3.13589 3.98288 3.14966 4.25977C2.87278 4.24599 2.59678 4.21355 2.323 4.16155C2.35544 4.42288 2.35544 4.68733 2.323 4.94822C2.59633 4.89622 2.87278 4.86377 3.14966 4.84999C3.13589 5.12688 3.10344 5.40288 3.05144 5.67666C3.31278 5.64422 3.57722 5.64422 3.83811 5.67666C3.78611 5.40333 3.75366 5.12688 3.73989 4.84999C4.01678 4.86377 4.29278 4.89622 4.56655 4.94822C4.53411 4.68688 4.53411 4.42244 4.56655 4.16155C4.29278 4.21399 4.01678 4.24644 3.73989 4.25977Z" fill="#E8112D"/>
<path d="M16 12.0002V9.11133H9.11108V13.778H14.2222C15.204 13.778 16 12.982 16 12.0002Z" fill="#EEEEEE"/>
<path d="M12.8512 11.7401C12.865 12.017 12.8974 12.293 12.9494 12.5668C12.6881 12.5344 12.4237 12.5344 12.1628 12.5668C12.2148 12.2935 12.2472 12.017 12.261 11.7401C11.9841 11.7539 11.7081 11.7864 11.4343 11.8384C11.4668 11.577 11.4668 11.3126 11.4343 11.0517C11.7077 11.1037 11.9841 11.1361 12.261 11.1499C12.2472 10.873 12.2148 10.597 12.1628 10.3232C12.4241 10.3557 12.6885 10.3557 12.9494 10.3232C12.8974 10.5966 12.865 10.873 12.8512 11.1499C13.1281 11.1361 13.4041 11.1037 13.6779 11.0517C13.6454 11.313 13.6454 11.5775 13.6779 11.8384C13.4041 11.7859 13.1281 11.7535 12.8512 11.7401Z" fill="#E8112D"/>
<path d="M6.88889 9.11133H0V12.0002C0 12.982 0.796 13.778 1.77778 13.778H6.88889V9.11133Z" fill="#EEEEEE"/>
<path d="M3.73989 11.7401C3.75366 12.017 3.78611 12.293 3.83811 12.5668C3.57678 12.5344 3.31233 12.5344 3.05144 12.5668C3.10344 12.2935 3.13589 12.017 3.14966 11.7401C2.87278 11.7539 2.59678 11.7864 2.323 11.8384C2.35544 11.577 2.35544 11.3126 2.323 11.0517C2.59633 11.1037 2.87278 11.1361 3.14966 11.1499C3.13589 10.873 3.10344 10.597 3.05144 10.3232C3.31278 10.3557 3.57722 10.3557 3.83811 10.3232C3.78611 10.5966 3.75366 10.873 3.73989 11.1499C4.01678 11.1361 4.29278 11.1037 4.56655 11.0517C4.53411 11.313 4.53411 11.5775 4.56655 11.8384C4.29278 11.7859 4.01678 11.7535 3.73989 11.7401Z" fill="#E8112D"/>
</svg>
