<svg width="16" height="16" viewBox="0 0 16 16" fill="none" xmlns="http://www.w3.org/2000/svg">
<path d="M0 12.0001C0 12.4716 0.187301 12.9237 0.520699 13.2571C0.854097 13.5905 1.30628 13.7778 1.77778 13.7778H14.2222C14.6937 13.7778 15.1459 13.5905 15.4793 13.2571C15.8127 12.9237 16 12.4716 16 12.0001V9.77783H0V12.0001Z" fill="#138808"/>
<path d="M16 6.22217V3.99995C16 3.52845 15.8127 3.07626 15.4793 2.74287C15.1459 2.40947 14.6937 2.22217 14.2222 2.22217H1.77778C1.30628 2.22217 0.854097 2.40947 0.520699 2.74287C0.187301 3.07626 0 3.52845 0 3.99995L0 6.22217H16Z" fill="#FF9933"/>
<path d="M0 6.07422H16V9.92622H0V6.07422Z" fill="#F7F7F7"/>
<path d="M7.99995 9.77772C8.98179 9.77772 9.77772 8.98179 9.77772 7.99995C9.77772 7.01811 8.98179 6.22217 7.99995 6.22217C7.01811 6.22217 6.22217 7.01811 6.22217 7.99995C6.22217 8.98179 7.01811 9.77772 7.99995 9.77772Z" fill="#000080"/>
<path d="M8 9.5C8.82843 9.5 9.5 8.82843 9.5 8C9.5 7.17157 8.82843 6.5 8 6.5C7.17157 6.5 6.5 7.17157 6.5 8C6.5 8.82843 7.17157 9.5 8 9.5Z" fill="#F7F7F7"/>
<path d="M8.04455 7.4443L8.0001 7.73319L7.95566 7.4443L8.0001 6.57764L8.04455 7.4443ZM7.6321 6.62608L7.81344 7.47453L7.93121 7.74208L7.89921 7.45186L7.6321 6.62608ZM7.28899 6.7683L7.68366 7.54075L7.86677 7.76875L7.76099 7.4963L7.28899 6.7683ZM6.99433 6.99408L7.57566 7.63853L7.81166 7.81141L7.63877 7.57541L6.99433 6.99408ZM6.76855 7.28875L7.49655 7.76075L7.76899 7.86653L7.54099 7.68341L6.76855 7.28875ZM6.62633 7.63186L7.4521 7.89897L7.74233 7.93097L7.47477 7.81319L6.62633 7.63186ZM6.57788 7.99986L7.44455 8.0443L7.73344 7.99986L7.44455 7.95541L6.57788 7.99986ZM6.62633 8.36786L7.47477 8.18653L7.74233 8.06875L7.4521 8.10075L6.62633 8.36786ZM6.76855 8.71097L7.54099 8.3163L7.76899 8.13319L7.49655 8.23897L6.76855 8.71097ZM6.99433 9.00564L7.63877 8.4243L7.81166 8.1883L7.57566 8.36119L6.99433 9.00564ZM7.28899 9.23141L7.76099 8.50341L7.86677 8.23097L7.68366 8.45897L7.28899 9.23141ZM7.6321 9.37364L7.89921 8.54786L7.93121 8.25764L7.81344 8.52519L7.6321 9.37364ZM8.0001 9.42208L8.04455 8.55541L8.0001 8.26653L7.95566 8.55541L8.0001 9.42208ZM8.3681 9.37364L8.18677 8.52519L8.06899 8.25764L8.10099 8.54786L8.3681 9.37364ZM8.71121 9.23141L8.31655 8.45897L8.13344 8.23097L8.23921 8.50341L8.71121 9.23141ZM9.00588 9.00564L8.42455 8.36119L8.18855 8.1883L8.36144 8.4243L9.00588 9.00564ZM9.23166 8.71097L8.50366 8.23897L8.23121 8.13319L8.45921 8.3163L9.23166 8.71097ZM9.37388 8.36786L8.5481 8.10075L8.25788 8.06875L8.52544 8.18653L9.37388 8.36786ZM9.42233 7.99986L8.55566 7.95541L8.26677 7.99986L8.55566 8.0443L9.42233 7.99986ZM9.37388 7.63186L8.52544 7.81319L8.25788 7.93097L8.5481 7.89897L9.37388 7.63186ZM9.23166 7.28875L8.45921 7.68341L8.23121 7.86653L8.50366 7.76075L9.23166 7.28875ZM9.00588 6.99408L8.36144 7.57541L8.18855 7.81141L8.42455 7.63853L9.00588 6.99408ZM8.71121 6.7683L8.23921 7.4963L8.13344 7.76875L8.31655 7.54075L8.71121 6.7683ZM8.3681 6.62608L8.10099 7.45186L8.06899 7.74208L8.18677 7.47453L8.3681 6.62608Z" fill="#6666B3"/>
<path d="M7.80446 6.60405C7.85356 6.60405 7.89335 6.56425 7.89335 6.51516C7.89335 6.46607 7.85356 6.42627 7.80446 6.42627C7.75537 6.42627 7.71558 6.46607 7.71558 6.51516C7.71558 6.56425 7.75537 6.60405 7.80446 6.60405Z" fill="#000080"/>
<path d="M7.42678 6.70561C7.47587 6.70561 7.51567 6.66581 7.51567 6.61672C7.51567 6.56763 7.47587 6.52783 7.42678 6.52783C7.37769 6.52783 7.33789 6.56763 7.33789 6.61672C7.33789 6.66581 7.37769 6.70561 7.42678 6.70561Z" fill="#000080"/>
<path d="M7.08816 6.90043C7.13725 6.90043 7.17705 6.86064 7.17705 6.81155C7.17705 6.76245 7.13725 6.72266 7.08816 6.72266C7.03906 6.72266 6.99927 6.76245 6.99927 6.81155C6.99927 6.86064 7.03906 6.90043 7.08816 6.90043Z" fill="#000080"/>
<path d="M6.81155 7.1768C6.86064 7.1768 6.90043 7.137 6.90043 7.08791C6.90043 7.03882 6.86064 6.99902 6.81155 6.99902C6.76245 6.99902 6.72266 7.03882 6.72266 7.08791C6.72266 7.137 6.76245 7.1768 6.81155 7.1768Z" fill="#000080"/>
<path d="M6.61648 7.51567C6.66557 7.51567 6.70537 7.47587 6.70537 7.42678C6.70537 7.37769 6.66557 7.33789 6.61648 7.33789C6.56738 7.33789 6.52759 7.37769 6.52759 7.42678C6.52759 7.47587 6.56738 7.51567 6.61648 7.51567Z" fill="#000080"/>
<path d="M6.51516 7.8936C6.56425 7.8936 6.60405 7.8538 6.60405 7.80471C6.60405 7.75562 6.56425 7.71582 6.51516 7.71582C6.46607 7.71582 6.42627 7.75562 6.42627 7.80471C6.42627 7.8538 6.46607 7.8936 6.51516 7.8936Z" fill="#000080"/>
<path d="M6.51516 8.28471C6.56425 8.28471 6.60405 8.24491 6.60405 8.19582C6.60405 8.14673 6.56425 8.10693 6.51516 8.10693C6.46607 8.10693 6.42627 8.14673 6.42627 8.19582C6.42627 8.24491 6.46607 8.28471 6.51516 8.28471Z" fill="#000080"/>
<path d="M6.61648 8.66215C6.66557 8.66215 6.70537 8.62236 6.70537 8.57326C6.70537 8.52417 6.66557 8.48438 6.61648 8.48438C6.56738 8.48438 6.52759 8.52417 6.52759 8.57326C6.52759 8.62236 6.56738 8.66215 6.61648 8.66215Z" fill="#000080"/>
<path d="M6.81155 9.00102C6.86064 9.00102 6.90043 8.96122 6.90043 8.91213C6.90043 8.86304 6.86064 8.82324 6.81155 8.82324C6.76245 8.82324 6.72266 8.86304 6.72266 8.91213C6.72266 8.96122 6.76245 9.00102 6.81155 9.00102Z" fill="#000080"/>
<path d="M7.08816 9.27739C7.13725 9.27739 7.17705 9.23759 7.17705 9.1885C7.17705 9.13941 7.13725 9.09961 7.08816 9.09961C7.03906 9.09961 6.99927 9.13941 6.99927 9.1885C6.99927 9.23759 7.03906 9.27739 7.08816 9.27739Z" fill="#000080"/>
<path d="M7.42678 9.4727C7.47587 9.4727 7.51567 9.4329 7.51567 9.38381C7.51567 9.33472 7.47587 9.29492 7.42678 9.29492C7.37769 9.29492 7.33789 9.33472 7.33789 9.38381C7.33789 9.4329 7.37769 9.4727 7.42678 9.4727Z" fill="#000080"/>
<path d="M7.80446 9.57377C7.85356 9.57377 7.89335 9.53398 7.89335 9.48488C7.89335 9.43579 7.85356 9.396 7.80446 9.396C7.75537 9.396 7.71558 9.43579 7.71558 9.48488C7.71558 9.53398 7.75537 9.57377 7.80446 9.57377Z" fill="#000080"/>
<path d="M8.19558 9.57377C8.24467 9.57377 8.28447 9.53398 8.28447 9.48488C8.28447 9.43579 8.24467 9.396 8.19558 9.396C8.14649 9.396 8.10669 9.43579 8.10669 9.48488C8.10669 9.53398 8.14649 9.57377 8.19558 9.57377Z" fill="#000080"/>
<path d="M8.57326 9.4727C8.62236 9.4727 8.66215 9.4329 8.66215 9.38381C8.66215 9.33472 8.62236 9.29492 8.57326 9.29492C8.52417 9.29492 8.48438 9.33472 8.48438 9.38381C8.48438 9.4329 8.52417 9.4727 8.57326 9.4727Z" fill="#000080"/>
<path d="M8.91213 9.27739C8.96122 9.27739 9.00102 9.23759 9.00102 9.1885C9.00102 9.13941 8.96122 9.09961 8.91213 9.09961C8.86304 9.09961 8.82324 9.13941 8.82324 9.1885C8.82324 9.23759 8.86304 9.27739 8.91213 9.27739Z" fill="#000080"/>
<path d="M9.1885 9.00102C9.23759 9.00102 9.27739 8.96122 9.27739 8.91213C9.27739 8.86304 9.23759 8.82324 9.1885 8.82324C9.13941 8.82324 9.09961 8.86304 9.09961 8.91213C9.09961 8.96122 9.13941 9.00102 9.1885 9.00102Z" fill="#000080"/>
<path d="M9.38357 8.66215C9.43266 8.66215 9.47246 8.62236 9.47246 8.57326C9.47246 8.52417 9.43266 8.48438 9.38357 8.48438C9.33447 8.48438 9.29468 8.52417 9.29468 8.57326C9.29468 8.62236 9.33447 8.66215 9.38357 8.66215Z" fill="#000080"/>
<path d="M9.48488 8.28471C9.53398 8.28471 9.57377 8.24491 9.57377 8.19582C9.57377 8.14673 9.53398 8.10693 9.48488 8.10693C9.43579 8.10693 9.396 8.14673 9.396 8.19582C9.396 8.24491 9.43579 8.28471 9.48488 8.28471Z" fill="#000080"/>
<path d="M9.48488 7.8936C9.53398 7.8936 9.57377 7.8538 9.57377 7.80471C9.57377 7.75562 9.53398 7.71582 9.48488 7.71582C9.43579 7.71582 9.396 7.75562 9.396 7.80471C9.396 7.8538 9.43579 7.8936 9.48488 7.8936Z" fill="#000080"/>
<path d="M9.38357 7.51567C9.43266 7.51567 9.47246 7.47587 9.47246 7.42678C9.47246 7.37769 9.43266 7.33789 9.38357 7.33789C9.33447 7.33789 9.29468 7.37769 9.29468 7.42678C9.29468 7.47587 9.33447 7.51567 9.38357 7.51567Z" fill="#000080"/>
<path d="M9.1885 7.1768C9.23759 7.1768 9.27739 7.137 9.27739 7.08791C9.27739 7.03882 9.23759 6.99902 9.1885 6.99902C9.13941 6.99902 9.09961 7.03882 9.09961 7.08791C9.09961 7.137 9.13941 7.1768 9.1885 7.1768Z" fill="#000080"/>
<path d="M8.91213 6.90043C8.96122 6.90043 9.00102 6.86064 9.00102 6.81155C9.00102 6.76245 8.96122 6.72266 8.91213 6.72266C8.86304 6.72266 8.82324 6.76245 8.82324 6.81155C8.82324 6.86064 8.86304 6.90043 8.91213 6.90043Z" fill="#000080"/>
<path d="M8.57326 6.70561C8.62236 6.70561 8.66215 6.66581 8.66215 6.61672C8.66215 6.56763 8.62236 6.52783 8.57326 6.52783C8.52417 6.52783 8.48438 6.56763 8.48438 6.61672C8.48438 6.66581 8.52417 6.70561 8.57326 6.70561Z" fill="#000080"/>
<path d="M8.19558 6.60405C8.24467 6.60405 8.28447 6.56425 8.28447 6.51516C8.28447 6.46607 8.24467 6.42627 8.19558 6.42627C8.14649 6.42627 8.10669 6.46607 8.10669 6.51516C8.10669 6.56425 8.14649 6.60405 8.19558 6.60405Z" fill="#000080"/>
<path d="M8.0001 8.4001C8.22101 8.4001 8.4001 8.22101 8.4001 8.0001C8.4001 7.77918 8.22101 7.6001 8.0001 7.6001C7.77918 7.6001 7.6001 7.77918 7.6001 8.0001C7.6001 8.22101 7.77918 8.4001 8.0001 8.4001Z" fill="#000080"/>
</svg>
