<svg width="16" height="16" viewBox="0 0 16 16" fill="none" xmlns="http://www.w3.org/2000/svg">
<path d="M15.7533 3.11106C15.4453 2.58172 14.8787 2.22217 14.2222 2.22217H8V3.11106H15.7533ZM0 11.1111H16V11.9999H0V11.1111ZM8 7.5555H16V8.44439H8V7.5555ZM8 5.77772H16V6.66661H8V5.77772ZM0 9.33328H16V10.2222H0V9.33328ZM1.77778 13.7777H14.2222C14.8787 13.7777 15.4453 13.4182 15.7533 12.8888H0.246667C0.554667 13.4182 1.12133 13.7777 1.77778 13.7777ZM8 3.99995H16V4.88883H8V3.99995Z" fill="#B22334"/>
<path d="M0.0302222 12.302C0.0377778 12.3433 0.0462222 12.3847 0.0564444 12.4251C0.068 12.47 0.0822222 12.5131 0.0973333 12.5567C0.136889 12.6718 0.184889 12.7829 0.245333 12.8869L0.246667 12.8891H15.7533L15.7542 12.8873C15.8142 12.7838 15.8622 12.6727 15.9018 12.558C15.9169 12.514 15.9316 12.47 15.9431 12.4242C15.9533 12.3842 15.9618 12.3433 15.9693 12.302C15.9876 12.2042 16 12.1038 16 12.0002H0C0 12.1038 0.0124444 12.2038 0.0302222 12.302ZM0 10.2224H16V11.1113H0V10.2224ZM0 8.44466V9.33355H16V8.44466H8H0ZM8 6.66688H16V7.55577H8V6.66688ZM8 4.88911H16V5.77799H8V4.88911ZM0 4.00022C0 3.89666 0.0133333 3.79711 0.0302222 3.69844C0.0124444 3.79666 0 3.89666 0 4.00022ZM0.0568889 3.57533C0.068 3.52999 0.0835556 3.48688 0.0977778 3.44333C0.0826667 3.48688 0.0684444 3.53044 0.0568889 3.57533ZM8 4.00022H16C16 3.89666 15.9876 3.79622 15.9693 3.69799C15.9618 3.65711 15.9538 3.61622 15.9431 3.57622C15.9311 3.53044 15.9169 3.48599 15.9013 3.44199C15.8618 3.32733 15.8138 3.21666 15.7538 3.11311C15.7542 3.11266 15.7538 3.11177 15.7533 3.11133H8V4.00022Z" fill="#EEEEEE"/>
<path d="M8 2.22217H1.77778C0.796 2.22217 0 3.01817 0 3.99995V8.44439H8V2.22217Z" fill="#3C3B6E"/>
<path d="M0.889404 3.43399L1.16407 3.63355L1.05918 3.95577L1.3334 3.75666L1.60807 3.95577L1.50318 3.63355L1.77785 3.43399H1.43829L1.3334 3.11133L1.22896 3.43399H0.889404ZM1.77829 4.32288L2.05296 4.52244L1.94807 4.84466L2.22229 4.64555L2.49696 4.84466L2.39207 4.52244L2.66674 4.32288H2.32718L2.22229 4.00022L2.11785 4.32288H1.77829ZM3.55607 4.32288L3.83074 4.52244L3.72585 4.84466L4.00007 4.64555L4.27474 4.84466L4.16985 4.52244L4.44452 4.32288H4.10496L4.00007 4.00022L3.89563 4.32288H3.55607ZM5.33385 4.32288L5.60852 4.52244L5.50363 4.84466L5.77785 4.64555L6.05252 4.84466L5.94763 4.52244L6.22229 4.32288H5.88274L5.77785 4.00022L5.6734 4.32288H5.33385ZM1.77829 6.10066L2.05296 6.30022L1.94807 6.62244L2.22229 6.42333L2.49696 6.62244L2.39207 6.30022L2.66674 6.10066H2.32718L2.22229 5.77799L2.11785 6.10066H1.77829ZM3.55607 6.10066L3.83074 6.30022L3.72585 6.62244L4.00007 6.42333L4.27474 6.62244L4.16985 6.30022L4.44452 6.10066H4.10496L4.00007 5.77799L3.89563 6.10066H3.55607ZM5.33385 6.10066L5.60852 6.30022L5.50363 6.62244L5.77785 6.42333L6.05252 6.62244L5.94763 6.30022L6.22229 6.10066H5.88274L5.77785 5.77799L5.6734 6.10066H5.33385ZM2.66718 3.43399L2.94185 3.63355L2.83696 3.95577L3.11118 3.75666L3.38585 3.95577L3.28096 3.63355L3.55563 3.43399H3.21607L3.11118 3.11133L3.00674 3.43399H2.66718ZM4.44496 3.43399L4.71963 3.63355L4.61474 3.95577L4.88896 3.75666L5.16363 3.95577L5.05874 3.63355L5.3334 3.43399H4.99385L4.88896 3.11133L4.78452 3.43399H4.44496ZM6.22274 3.43399L6.4974 3.63355L6.39252 3.95577L6.66674 3.75666L6.9414 3.95577L6.83652 3.63355L7.11118 3.43399H6.77163L6.66674 3.11133L6.56229 3.43399H6.22274ZM0.889404 5.21177L1.16407 5.41133L1.05918 5.73355L1.3334 5.53444L1.60807 5.73355L1.50318 5.41133L1.77785 5.21177H1.43829L1.3334 4.88911L1.22896 5.21177H0.889404ZM2.83696 5.73355L3.11118 5.53444L3.38585 5.73355L3.28096 5.41133L3.55563 5.21177H3.21607L3.11118 4.88911L3.00674 5.21177H2.66718L2.94185 5.41133L2.83696 5.73355ZM4.44496 5.21177L4.71963 5.41133L4.61474 5.73355L4.88896 5.53444L5.16363 5.73355L5.05874 5.41133L5.3334 5.21177H4.99385L4.88896 4.88911L4.78452 5.21177H4.44496ZM6.22274 5.21177L6.4974 5.41133L6.39252 5.73355L6.66674 5.53444L6.9414 5.73355L6.83652 5.41133L7.11118 5.21177H6.77163L6.66674 4.88911L6.56229 5.21177H6.22274ZM0.889404 6.98955L1.16407 7.18911L1.05918 7.51133L1.3334 7.31222L1.60807 7.51133L1.50318 7.18911L1.77785 6.98955H1.43829L1.3334 6.66688L1.22896 6.98955H0.889404ZM2.83696 7.51133L3.11118 7.31222L3.38585 7.51133L3.28096 7.18911L3.55563 6.98955H3.21607L3.11118 6.66688L3.00674 6.98955H2.66718L2.94185 7.18911L2.83696 7.51133ZM4.44496 6.98955L4.71963 7.18911L4.61474 7.51133L4.88896 7.31222L5.16363 7.51133L5.05874 7.18911L5.3334 6.98955H4.99385L4.88896 6.66688L4.78452 6.98955H4.44496ZM6.22274 6.98955L6.4974 7.18911L6.39252 7.51133L6.66674 7.31222L6.9414 7.51133L6.83652 7.18911L7.11118 6.98955H6.77163L6.66674 6.66688L6.56229 6.98955H6.22274Z" fill="white"/>
</svg>
