<svg width="21" height="21" viewBox="0 0 21 21" fill="none" xmlns="http://www.w3.org/2000/svg">
<path d="M8.0938 19.25L7.7438 16.45C7.55422 16.3771 7.37572 16.2896 7.2083 16.1875C7.04088 16.0854 6.87667 15.976 6.71567 15.8594L4.11255 16.9531L1.7063 12.7969L3.95942 11.0906C3.94484 10.9885 3.93755 10.8903 3.93755 10.7958V10.2051C3.93755 10.11 3.94484 10.0115 3.95942 9.90937L1.7063 8.20312L4.11255 4.04688L6.71567 5.14062C6.87609 5.02396 7.0438 4.91458 7.2188 4.8125C7.3938 4.71042 7.5688 4.62292 7.7438 4.55L8.0938 1.75H12.9063L13.2563 4.55C13.4459 4.62292 13.6247 4.71042 13.7927 4.8125C13.9607 4.91458 14.1246 5.02396 14.2844 5.14062L16.8875 4.04688L19.2938 8.20312L17.0407 9.90937C17.0553 10.0115 17.0625 10.11 17.0625 10.2051V10.7949C17.0625 10.89 17.048 10.9885 17.0188 11.0906L19.2719 12.7969L16.8657 16.9531L14.2844 15.8594C14.124 15.976 13.9563 16.0854 13.7813 16.1875C13.6063 16.2896 13.4313 16.3771 13.2563 16.45L12.9063 19.25H8.0938ZM10.5438 13.5625C11.3896 13.5625 12.1115 13.2635 12.7094 12.6656C13.3073 12.0677 13.6063 11.3458 13.6063 10.5C13.6063 9.65417 13.3073 8.93229 12.7094 8.33437C12.1115 7.73646 11.3896 7.4375 10.5438 7.4375C9.68338 7.4375 8.95772 7.73646 8.3668 8.33437C7.77588 8.93229 7.48072 9.65417 7.4813 10.5C7.48188 11.3458 7.77734 12.0677 8.36767 12.6656C8.95801 13.2635 9.68338 13.5625 10.5438 13.5625Z" fill="white"/>
</svg>
